<svg data-v-1084b650="" xmlns="http://www.w3.org/2000/svg" viewBox="0 0 300 300"><!----> <!----> <rect data-v-1084b650="" fill="#ffffff" x="0" y="0" width="300px" height="300px" class="logo-background-square"></rect> <!----> <!----> <g data-v-1084b650="" id="7124c633-2b55-df16-ef64-3a0bf3c453f7" fill="#488eff" stroke="#488eff" transform="matrix(1,0,0,1,0.00392913818359375,-0.00012969970703125)"><svg xmlns="http://www.w3.org/2000/svg" xmlns:xlink="http://www.w3.org/1999/xlink" viewBox="0 0 75 75" version="1.1" x="0px" y="0px"><g><path style="" d="M 44.855469 60.417969 C 44.171875 60.417969 43.484375 60.191406 42.910156 59.730469 C 41.582031 58.65625 41.375 56.703125 42.449219 55.375 L 56.972656 37.40625 L 42.460938 19.640625 C 41.378906 18.3125 41.574219 16.363281 42.898438 15.28125 C 44.222656 14.199219 46.171875 14.394531 47.257812 15.71875 L 63.363281 35.4375 C 64.289062 36.574219 64.292969 38.203125 63.371094 39.34375 L 47.265625 59.265625 C 46.65625 60.023438 45.757812 60.417969 44.855469 60.417969 Z M 30.140625 60.417969 C 29.246094 60.417969 28.355469 60.03125 27.742188 59.277344 L 11.636719 39.5625 C 10.710938 38.425781 10.703125 36.796875 11.625 35.65625 L 27.730469 15.734375 C 28.804688 14.402344 30.757812 14.195312 32.085938 15.273438 C 33.417969 16.347656 33.625 18.296875 32.546875 19.625 L 18.027344 37.59375 L 32.539062 55.363281 C 33.621094 56.6875 33.425781 58.640625 32.101562 59.722656 C 31.523438 60.1875 30.828125 60.417969 30.140625 60.417969 Z M 30.140625 60.417969 " fill-rule="nonzero" fill-opacity="1"></path></g></svg></g></svg>