<svg data-v-1084b650="" xmlns="http://www.w3.org/2000/svg" viewBox="0 0 300 300"><!----> <!----> <rect data-v-1084b650="" fill="#ffffff" x="0" y="0" width="300px" height="300px" class="logo-background-square"></rect> <!----> <g data-v-1084b650="" id="ffb74d4a-6a5d-f121-fe0a-6f8f8135541d" fill="#2e3034" transform="matrix(3.0999999999999996,0,0,3.0999999999999996,32.06050054430963,163.68185708522796)"><path d="M0.31 11.96C1.15 12.98 2.52 13.66 4.16 13.66C6.40 13.66 7.73 12.70 7.73 10.96C7.73 9.60 7.10 8.78 5.14 8.34L3.64 8.01C2.18 7.67 1.82 7.11 1.82 6.26C1.82 5.46 2.28 4.47 4.17 4.47C5.36 4.47 6.34 4.94 6.93 5.61L7.55 4.94C6.61 3.95 5.50 3.64 4.24 3.64C2.04 3.64 0.87 4.68 0.87 6.34C0.87 7.57 1.50 8.48 3.07 8.83L4.52 9.17C6.41 9.59 6.76 10.21 6.76 11.06C6.76 11.87 6.27 12.82 4.23 12.82C2.86 12.82 1.67 12.22 0.98 11.33ZM10.30 13.50L10.30 10.74L11.41 9.69L14.17 13.50L15.19 13.50L12.01 9.09L14.71 6.51L13.58 6.51L10.30 9.72L10.30 3.82L9.46 3.82L9.46 13.50ZM17.16 13.50L17.16 6.51L16.32 6.51L16.32 13.50ZM17.22 5.11L17.22 3.82L16.27 3.82L16.27 5.11ZM20.24 16.03L20.24 12.21C20.65 13.05 21.50 13.66 22.85 13.66C24.74 13.66 26.10 12.35 26.10 9.98C26.10 7.69 24.85 6.33 23.02 6.33C21.57 6.33 20.59 7.10 20.24 7.95L20.24 6.51L19.40 6.51L19.40 16.03ZM20.23 9.95C20.23 8.16 21.35 7.08 22.82 7.08C24.21 7.08 25.23 8.13 25.23 10.00C25.23 11.91 24.12 12.88 22.78 12.88C21.34 12.88 20.23 12.05 20.23 9.95ZM31.19 13.50L31.19 4.68L34.50 4.68L34.50 3.82L27.01 3.82L27.01 4.68L30.28 4.68L30.28 13.50ZM36.30 13.50L36.30 9.90C36.30 9.16 36.40 8.58 36.68 8.13C36.96 7.69 37.63 7.14 38.60 7.14C39.28 7.14 39.73 7.34 40.01 7.64C40.29 7.95 40.49 8.47 40.49 9.45L40.49 13.50L41.36 13.50L41.36 9.35C41.36 8.23 41.17 7.62 40.88 7.21C40.46 6.64 39.79 6.34 38.84 6.34C37.60 6.34 36.60 7.03 36.30 7.90L36.30 3.82L35.46 3.82L35.46 13.50ZM49.76 11.38L48.93 11.20C48.68 12.15 47.84 12.88 46.58 12.88C45.54 12.88 44.06 12.32 44.04 10.19L49.78 10.19C49.78 7.62 48.57 6.33 46.51 6.33C44.65 6.33 43.15 7.71 43.15 9.97C43.15 12.19 44.38 13.66 46.55 13.66C48.26 13.66 49.42 12.71 49.76 11.38ZM44.04 9.51C44.18 7.91 45.25 7.11 46.49 7.11C48.16 7.11 48.79 8.19 48.89 9.51ZM57.16 13.50L57.16 12.64L52.36 12.64L52.36 3.82L51.48 3.82L51.48 13.50ZM59.39 13.50L59.39 6.51L58.55 6.51L58.55 13.50ZM59.44 5.11L59.44 3.82L58.49 3.82L58.49 5.11ZM62.47 13.50L62.47 9.91C62.47 9.21 62.55 8.62 62.82 8.18C63.08 7.71 63.76 7.14 64.78 7.14C65.42 7.14 65.87 7.31 66.18 7.63C66.50 7.98 66.65 8.57 66.65 9.58L66.65 13.50L67.52 13.50L67.52 9.45C67.52 8.36 67.37 7.63 67.03 7.20C66.60 6.65 66.00 6.34 64.97 6.34C63.73 6.34 62.73 7.07 62.47 7.92L62.47 6.51L61.63 6.51L61.63 13.50ZM75.75 11.38L74.93 11.20C74.68 12.15 73.84 12.88 72.58 12.88C71.54 12.88 70.06 12.32 70.04 10.19L75.78 10.19C75.78 7.62 74.56 6.33 72.51 6.33C70.64 6.33 69.15 7.71 69.15 9.97C69.15 12.19 70.38 13.66 72.55 13.66C74.26 13.66 75.42 12.71 75.75 11.38ZM70.04 9.51C70.18 7.91 71.25 7.11 72.49 7.11C74.16 7.11 74.79 8.19 74.89 9.51Z"></path></g> <!----> <g data-v-1084b650="" id="65427967-88db-cf97-ff23-778c0b743bb8" stroke="#488eff" fill="#488eff" transform="matrix(0.4189840712477172,0,0,0.4189840712477172,87.15010642097148,62.18661384036004)"><svg xmlns="http://www.w3.org/2000/svg" xmlns:xlink="http://www.w3.org/1999/xlink" viewBox="0 0 75 75" version="1.1" x="0px" y="0px"><g><path style="" d="M 44.855469 60.417969 C 44.171875 60.417969 43.484375 60.191406 42.910156 59.730469 C 41.582031 58.65625 41.375 56.703125 42.449219 55.375 L 56.972656 37.40625 L 42.460938 19.640625 C 41.378906 18.3125 41.574219 16.363281 42.898438 15.28125 C 44.222656 14.199219 46.171875 14.394531 47.257812 15.71875 L 63.363281 35.4375 C 64.289062 36.574219 64.292969 38.203125 63.371094 39.34375 L 47.265625 59.265625 C 46.65625 60.023438 45.757812 60.417969 44.855469 60.417969 Z M 30.140625 60.417969 C 29.246094 60.417969 28.355469 60.03125 27.742188 59.277344 L 11.636719 39.5625 C 10.710938 38.425781 10.703125 36.796875 11.625 35.65625 L 27.730469 15.734375 C 28.804688 14.402344 30.757812 14.195312 32.085938 15.273438 C 33.417969 16.347656 33.625 18.296875 32.546875 19.625 L 18.027344 37.59375 L 32.539062 55.363281 C 33.621094 56.6875 33.425781 58.640625 32.101562 59.722656 C 31.523438 60.1875 30.828125 60.417969 30.140625 60.417969 Z M 30.140625 60.417969 " fill-rule="nonzero" fill-opacity="1"></path></g></svg></g></svg>